<?xml version="1.0" standalone="no"?>
<!DOCTYPE svg PUBLIC "-//W3C//DTD SVG 20010904//EN"
 "http://www.w3.org/TR/2001/REC-SVG-20010904/DTD/svg10.dtd">
<svg version="1.0" xmlns="http://www.w3.org/2000/svg"
 width="211.000000pt" height="198.000000pt" viewBox="0 0 211.000000 198.000000"
 preserveAspectRatio="xMidYMid meet">

<g transform="translate(0.000000,198.000000) scale(0.100000,-0.100000)"
fill="#000000" stroke="none">
<path d="M1020 1920 c-8 -5 -10 -10 -5 -10 6 0 17 5 25 10 8 5 11 10 5 10 -5
0 -17 -5 -25 -10z"/>
<path d="M1080 1920 c8 -5 20 -10 25 -10 6 0 3 5 -5 10 -8 5 -19 10 -25 10 -5
0 -3 -5 5 -10z"/>
<path d="M960 1885 c-14 -8 -20 -14 -14 -15 5 0 19 7 30 15 24 18 16 19 -16 0z"/>
<path d="M1130 1896 c0 -3 14 -12 30 -21 17 -9 30 -13 30 -11 0 3 -13 12 -30
21 -16 9 -30 13 -30 11z"/>
<path d="M900 1850 c-9 -6 -10 -10 -3 -10 6 0 15 5 18 10 8 12 4 12 -15 0z"/>
<path d="M1207 1849 c7 -7 15 -10 18 -7 3 3 -2 9 -12 12 -14 6 -15 5 -6 -5z"/>
<path d="M845 1819 c-16 -10 -25 -19 -19 -19 7 0 22 9 35 20 30 24 23 24 -16
-1z"/>
<path d="M1259 1821 c13 -12 28 -21 34 -21 12 0 11 0 -28 24 l-30 17 24 -20z"/>
<path d="M770 1775 c-14 -8 -20 -14 -14 -15 5 0 19 7 30 15 24 18 16 19 -16 0z"/>
<path d="M1334 1776 c11 -9 24 -16 30 -16 12 0 7 5 -24 19 -24 11 -24 11 -6
-3z"/>
<path d="M700 1735 c-14 -8 -20 -14 -14 -15 5 0 19 7 30 15 24 18 16 19 -16 0z"/>
<path d="M1404 1736 c11 -9 24 -16 30 -16 12 0 7 5 -24 19 -24 11 -24 11 -6
-3z"/>
<path d="M640 1700 c-9 -6 -10 -10 -3 -10 6 0 15 5 18 10 8 12 4 12 -15 0z"/>
<path d="M1467 1699 c7 -7 15 -10 18 -7 3 3 -2 9 -12 12 -14 6 -15 5 -6 -5z"/>
<path d="M570 1660 c-8 -5 -10 -10 -5 -10 6 0 17 5 25 10 8 5 11 10 5 10 -5 0
-17 -5 -25 -10z"/>
<path d="M1530 1660 c8 -5 20 -10 25 -10 6 0 3 5 -5 10 -8 5 -19 10 -25 10 -5
0 -3 -5 5 -10z"/>
<path d="M510 1625 c-14 -8 -20 -14 -14 -15 5 0 19 7 30 15 24 18 16 19 -16 0z"/>
<path d="M1594 1626 c11 -9 24 -16 30 -16 12 0 7 5 -24 19 -24 11 -24 11 -6
-3z"/>
<path d="M456 1595 c-11 -8 -15 -15 -9 -15 6 0 16 7 23 15 16 19 11 19 -14 0z"/>
<path d="M1652 1594 c10 -10 20 -16 22 -13 3 3 -5 11 -17 18 -21 13 -21 12 -5
-5z"/>
<path d="M964 1561 c-51 -22 -83 -108 -52 -139 7 -7 9 -13 5 -13 -4 -1 -10 -3
-14 -4 -5 -2 -18 -6 -29 -10 -23 -7 -57 -48 -87 -105 -13 -25 -16 -28 -12 -10
4 14 11 42 16 64 5 21 8 40 6 42 -1 2 -80 6 -174 10 l-172 7 -5 -24 c-2 -13
-10 -86 -17 -161 -9 -104 -9 -141 0 -151 7 -9 45 -17 113 -21 130 -9 158 -15
158 -33 0 -12 -8 -14 -32 -9 -18 3 -76 8 -128 12 -52 4 -101 11 -108 17 -19
15 -28 -1 -14 -23 11 -18 9 -20 -12 -20 -14 0 -23 -5 -21 -12 10 -42 19 -58
35 -63 27 -9 32 -33 11 -52 -11 -9 -17 -22 -14 -29 5 -13 -40 -86 -81 -133
l-21 -24 27 14 c15 8 67 51 117 97 99 90 106 93 197 66 42 -12 54 -20 54 -35
0 -17 -5 -19 -34 -13 -84 15 -194 -50 -231 -138 -57 -137 51 -290 205 -292 89
0 174 58 209 143 12 26 18 31 37 27 12 -3 87 -7 167 -8 179 -2 186 1 216 101
11 38 21 76 21 84 0 7 9 22 20 32 15 14 19 26 15 45 -3 14 -1 37 5 51 9 21 10
20 5 -11 -5 -34 -2 -31 17 19 8 23 9 23 29 5 17 -15 19 -27 15 -69 -4 -39 -3
-43 3 -17 11 43 18 48 26 22 5 -17 -1 -30 -23 -54 -41 -41 -72 -111 -72 -162
0 -25 -6 -47 -15 -54 -18 -15 -20 -34 -2 -27 6 3 20 8 29 12 13 5 22 -3 36
-32 40 -77 104 -113 200 -113 114 0 201 76 210 184 6 71 -12 120 -59 167 -22
22 -33 39 -26 39 6 1 -6 11 -28 23 -32 17 -56 22 -122 22 l-82 0 -17 37 c-22
50 -14 66 37 70 41 3 42 4 46 41 5 50 -17 93 -77 152 -48 47 -50 48 -69 31
-10 -10 -22 -29 -26 -43 l-6 -25 -19 25 c-11 14 -20 33 -20 43 0 9 -16 32 -35
51 -25 24 -35 43 -35 64 0 37 -16 69 -34 69 -11 0 -13 -13 -9 -60 l6 -60 -69
29 c-101 42 -124 53 -124 62 0 4 -3 14 -6 23 -4 11 -1 16 11 16 9 0 13 5 10
10 -3 6 1 10 9 10 8 0 18 9 21 20 3 11 11 20 17 20 5 0 8 7 4 15 -10 27 4 46
25 34 10 -5 19 -8 19 -5 0 17 -41 94 -58 109 -24 22 -87 31 -118 18z m64 -385
c16 -8 57 -22 92 -31 41 -10 72 -25 82 -38 10 -12 18 -18 18 -14 0 4 8 3 19
-2 10 -6 21 -7 25 -4 27 27 49 -2 50 -65 1 -25 -2 -31 -14 -26 -30 13 -126 25
-156 19 -19 -3 -42 1 -60 10 -16 8 -55 20 -86 27 -61 13 -75 32 -43 58 8 7 15
16 15 21 0 14 19 59 25 59 3 0 18 -6 33 -14z m250 -366 c1 -53 -14 -43 -16 10
-1 23 2 39 7 36 5 -3 9 -24 9 -46z m-482 -5 c4 -8 4 -22 0 -30 -4 -13 -9 -13
-25 -3 -15 9 -17 16 -10 30 12 22 28 23 35 3z m534 -19 c0 -7 -7 -19 -15 -26
-16 -13 -20 -3 -9 24 8 20 24 21 24 2z m-467 -35 c22 -38 22 -41 -7 -41 -24 0
-36 16 -36 51 0 28 23 23 43 -10z m-197 -46 c2 -21 -1 -24 -12 -14 -17 14 -18
39 -1 39 6 0 13 -11 13 -25z m579 5 c0 -22 -29 -18 -33 3 -3 14 1 18 15 15 10
-2 18 -10 18 -18z m-610 -10 c9 -27 -14 -48 -49 -44 -45 5 -55 22 -26 44 33
26 67 26 75 0z m100 -11 c-9 -14 -45 -11 -45 4 0 8 3 17 6 20 10 9 46 -12 39
-24z m929 0 c29 -23 33 -41 11 -59 -12 -10 -22 -9 -49 4 -33 16 -46 33 -46 62
0 21 53 17 84 -7z m-149 -20 c9 -27 -26 -64 -44 -46 -15 15 -14 27 6 49 21 23
30 23 38 -3z m-277 -76 c-7 -15 -22 -29 -33 -32 -17 -3 -16 1 8 22 15 15 27
32 27 38 0 7 3 10 6 6 3 -3 0 -18 -8 -34z m222 27 c0 -5 -4 -10 -10 -10 -5 0
-10 5 -10 10 0 6 5 10 10 10 6 0 10 -4 10 -10z m264 -23 c8 -33 -12 -97 -30
-97 -8 0 -24 4 -34 10 -16 9 -17 14 -7 42 11 30 43 67 58 68 4 0 9 -10 13 -23z
m-1156 -44 c24 -38 28 -58 11 -69 -18 -11 -59 39 -66 78 -5 32 -3 36 13 32 11
-3 29 -21 42 -41z m398 20 c-3 -3 -13 -2 -23 2 -17 7 -17 8 2 15 19 7 34 -5
21 -17z m519 -1 c0 -8 8 -20 18 -27 15 -10 17 -21 12 -44 -4 -17 -13 -31 -21
-31 -28 0 -75 104 -51 114 20 8 42 1 42 -12z m-764 -71 l24 -20 -39 -16 c-55
-23 -90 -17 -94 17 -3 24 0 27 35 31 21 2 41 4 44 5 4 1 17 -7 30 -17z m917
-13 c48 -24 21 -48 -54 -48 -43 0 -44 0 -44 34 0 34 0 35 38 30 20 -3 47 -10
60 -16z"/>
<path d="M380 1550 c-9 -6 -10 -10 -3 -10 6 0 15 5 18 10 8 12 4 12 -15 0z"/>
<path d="M1727 1549 c7 -7 15 -10 18 -7 3 3 -2 9 -12 12 -14 6 -15 5 -6 -5z"/>
<path d="M320 1515 c-14 -8 -20 -14 -14 -15 5 0 19 7 30 15 24 18 16 19 -16 0z"/>
<path d="M1784 1516 c11 -9 24 -16 30 -16 12 0 7 5 -24 19 -24 11 -24 11 -6
-3z"/>
<path d="M250 1475 c-14 -8 -20 -14 -14 -15 5 0 19 7 30 15 24 18 16 19 -16 0z"/>
<path d="M1854 1476 c11 -9 24 -16 30 -16 12 0 7 5 -24 19 -24 11 -24 11 -6
-3z"/>
<path d="M1445 1140 c3 -5 8 -10 11 -10 2 0 4 5 4 10 0 6 -5 10 -11 10 -5 0
-7 -4 -4 -10z"/>
<path d="M261 456 c2 -2 15 -9 29 -15 24 -11 24 -11 6 3 -16 13 -49 24 -35 12z"/>
<path d="M1824 444 c-18 -14 -18 -14 6 -3 31 14 36 19 24 19 -6 0 -19 -7 -30
-16z"/>
<path d="M331 416 c2 -2 15 -9 29 -15 24 -11 24 -11 6 3 -16 13 -49 24 -35 12z"/>
<path d="M1754 404 c-18 -14 -18 -14 6 -3 31 14 36 19 24 19 -6 0 -19 -7 -30
-16z"/>
<path d="M400 376 c0 -2 7 -7 16 -10 8 -3 12 -2 9 4 -6 10 -25 14 -25 6z"/>
<path d="M1690 370 c-8 -5 -10 -10 -5 -10 6 0 17 5 25 10 8 5 11 10 5 10 -5 0
-17 -5 -25 -10z"/>
<path d="M451 346 c2 -2 15 -9 29 -15 24 -11 24 -11 6 3 -16 13 -49 24 -35 12z"/>
<path d="M1634 334 c-18 -14 -18 -14 6 -3 31 14 36 19 24 19 -6 0 -19 -7 -30
-16z"/>
<path d="M521 306 c2 -2 15 -9 29 -15 24 -11 24 -11 6 3 -16 13 -49 24 -35 12z"/>
<path d="M1564 294 c-18 -14 -18 -14 6 -3 31 14 36 19 24 19 -6 0 -19 -7 -30
-16z"/>
<path d="M591 266 c2 -2 15 -9 29 -15 24 -11 24 -11 6 3 -16 13 -49 24 -35 12z"/>
<path d="M1494 254 c-18 -14 -18 -14 6 -3 31 14 36 19 24 19 -6 0 -19 -7 -30
-16z"/>
<path d="M660 226 c0 -2 7 -7 16 -10 8 -3 12 -2 9 4 -6 10 -25 14 -25 6z"/>
<path d="M1435 220 c-3 -6 1 -7 9 -4 18 7 21 14 7 14 -6 0 -13 -4 -16 -10z"/>
<path d="M711 196 c2 -2 15 -9 29 -15 24 -11 24 -11 6 3 -16 13 -49 24 -35 12z"/>
<path d="M1374 184 c-18 -14 -18 -14 6 -3 31 14 36 19 24 19 -6 0 -19 -7 -30
-16z"/>
<path d="M781 156 c2 -2 15 -9 29 -15 24 -11 24 -11 6 3 -16 13 -49 24 -35 12z"/>
<path d="M1304 144 c-18 -14 -18 -14 6 -3 31 14 36 19 24 19 -6 0 -19 -7 -30
-16z"/>
<path d="M860 110 c8 -5 20 -10 25 -10 6 0 3 5 -5 10 -8 5 -19 10 -25 10 -5 0
-3 -5 5 -10z"/>
<path d="M1240 110 c-8 -5 -10 -10 -5 -10 6 0 17 5 25 10 8 5 11 10 5 10 -5 0
-17 -5 -25 -10z"/>
<path d="M901 86 c2 -2 15 -9 29 -15 24 -11 24 -11 6 3 -16 13 -49 24 -35 12z"/>
<path d="M1175 70 c-3 -6 1 -7 9 -4 18 7 21 14 7 14 -6 0 -13 -4 -16 -10z"/>
<path d="M971 46 c2 -2 15 -9 29 -15 24 -11 24 -11 6 3 -16 13 -49 24 -35 12z"/>
<path d="M1114 34 c-18 -14 -18 -14 6 -3 31 14 36 19 24 19 -6 0 -19 -7 -30
-16z"/>
<path d="M1048 3 c6 -2 18 -2 25 0 6 3 1 5 -13 5 -14 0 -19 -2 -12 -5z"/>
</g>
</svg>
